<?xml version="1.0" encoding="UTF-8"?>
<svg id="Layer_2" data-name="Layer 2" xmlns="http://www.w3.org/2000/svg" viewBox="0 0 429.77 432.08">
  <defs>
    <style>
      .cls-1 {
        fill: #3185e7;
      }
    </style>
  </defs>
  <g id="Layer_1-2" data-name="Layer 1">
    <path class="cls-1" d="M211.31,320.55c-64.24,0-116.51-52.26-116.51-116.51s52.26-116.51,116.51-116.51c1.47,0,2.95.03,4.42.08s2.96.14,4.43.25,2.94.25,4.41.42,2.93.36,4.39.58,2.91.47,4.36.74,2.89.58,4.32.9,2.86.68,4.28,1.06,2.83.79,4.24,1.22,2.8.89,4.19,1.37,2.77.99,4.14,1.52,2.73,1.09,4.08,1.67,2.69,1.19,4.01,1.82,2.64,1.28,3.94,1.96,2.59,1.38,3.87,2.1,2.54,1.47,3.79,2.24,2.48,1.57,3.7,2.38,2.42,1.66,3.61,2.52,2.36,1.75,3.51,2.65,2.29,1.83,3.41,2.78,2.22,1.92,3.31,2.91,2.15,2.01,3.2,3.04,2.08,2.09,3.08,3.16,2,2.17,2.96,3.29,1.91,2.25,2.84,3.41,1.83,2.33,2.7,3.53c.42.57.81,1.15,1.24,1.71-.46-.44-.95-.85-1.41-1.3-1.03-1-1.92-2.12-2.9-3.17-.84-.91-1.72-1.79-2.61-2.64s-1.85-1.72-2.81-2.54-1.98-1.65-3-2.43-2.1-1.57-3.17-2.32-2.21-1.5-3.34-2.22-2.31-1.43-3.49-2.11-2.41-1.36-3.63-2-2.49-1.28-3.76-1.89-2.57-1.21-3.87-1.78-2.64-1.13-3.98-1.67-2.7-1.06-4.07-1.55-2.76-.98-4.15-1.44-2.8-.9-4.21-1.33-2.84-.83-4.27-1.21-2.87-.75-4.31-1.1-2.89-.67-4.34-.98-2.9-.59-4.36-.86-2.91-.52-4.36-.75-2.9-.44-4.36-.63-2.89-.36-4.34-.51-2.87-.28-4.31-.39-2.84-.2-4.27-.27-2.81-.12-4.21-.15c-.97-.02-1.94-.03-2.91-.03-57.57,0-104.4,46.84-104.4,104.4s46.84,104.4,104.4,104.4c39.39,0,74.02-23.66,96.73-54.62,4.99-6.8,9.48-13.92,13.23-21.49-.16,3.09-1.61,6.35-2.52,9.21-1,3.16-2.14,6.28-3.41,9.34-2.53,6.13-5.57,12.05-9.08,17.68-6.8,10.93-15.68,22.11-26.19,29.71-19.91,14.39-44.2,22.27-68.76,22.27Z"/>
    <path class="cls-1" d="M168.25,274.02c-.46-.22-.91-.45-1.35-.69-2.51-1.39-4.91-3.13-7.24-4.8-4.45-3.2-8.66-6.75-12.53-10.63-7.37-7.41-13.44-16.07-17.74-25.6-4.43-9.82-6.93-20.41-7.82-31.13-.26-3.16-.38-6.32-.38-9.49,0-56.61,46.05-102.66,102.66-102.66,8.6,0,17.17,1.39,25.38,3.93,8.27,2.56,16.17,6.26,23.52,10.82s14.35,10.09,20.6,16.22c5.25,5.15,9.84,10.8,14.22,16.7-1.28-1.1-2.03-2.64-3.02-3.98-.77-1.03-1.68-1.94-2.58-2.85-4.14-4.16-8.12-8.39-12.86-11.89-7.09-5.23-15.12-9.12-23.45-11.92s-17.49-4.65-26.47-5.58c-5.09-.53-10.21-.78-15.33-.78-50.73,0-92,41.27-92,92,0,32.31,16.03,68.76,43.84,85.28-1.19-.71-2.94-1.07-4.29-1.58-1.07-.41-2.13-.84-3.16-1.34Z"/>
    <path class="cls-1" d="M223.07,352.37c-28.54,0-56.29-8.07-80.26-23.33,1.5.4,1.18.45,4.67,1.64,24.67,8.42,50.22,13.29,76.32,11.48,26.44-1.83,51.76-13.19,73.93-28.1,18.85-12.68,34.39-30.14,44.75-50.36,9.65-18.81,14.68-39.84,14.68-60.98,0-73.94-60.15-134.09-134.09-134.09-24.3,0-53.98,3.78-74.71,16.19,1.48-2.16,5.02-5.4,7.87-7.53,3.52-2.64,7.19-5.08,10.99-7.31,7.42-4.36,15.31-7.92,23.48-10.61,35.07-11.58,72.51-5.38,104.45,12.25,28.75,15.87,51.91,41.2,65.08,71.28,8.24,18.82,12.48,39.29,12.48,59.83,0,82.51-67.13,149.64-149.64,149.64Z"/>
    <path class="cls-1" d="M228.77,432.08c-56.03,0-107.37-21.17-153.81-64.67C27.32,322.79,0,264.84,0,208.42S21.9,96.25,61.65,55.37C120.85-5.51,211.39-14.82,281.64,20.72c27.99,14.16,46.92,44.76,76.72,54.45C316.69,35.1,261.24,9.86,205.06,9.86c-101.25,0-186.53,94.45-186.53,198.56,0,48.67,24.12,101.91,66.18,141.31,41.56,38.92,97.58,63.01,146.99,63.01,38.48,0,83.44-9.49,114.65-32.39,30.55-22.41,70.69-67.3,83.42-103.4-1.3,4.59-2.08,9.13-3.31,13.58-3.9,14.19-10.81,27.91-18.22,40.58s-15.46,23.66-24.84,34.21c-9.41,10.58-19.88,20.22-31.19,28.75-.74.56-1.48,1.11-2.23,1.66-35.79,26.25-77.11,36.35-121.21,36.35Z"/>
    <path class="cls-1" d="M235.47,16.58c-44.13,1.05-87.79,17.87-123.25,47.15-17.68,14.6-33.4,32.39-44.08,52.76-10.81,20.6-14.14,44.12-13.12,67.2,1.29,29.1,10.46,56.56,26.13,81-13.7-31.3-14.89-57.15-14.52-83.69.29-20.87,6.9-41.32,16.77-59.71,15.93-29.69,43.18-49.56,72.89-65.45,53.82-28.77,123.49-25.03,173.91,9.35,50.42,34.38,79.36,97.86,72.24,158.47-7.12,60.61-49.99,115.66-107.01,137.41s-129.92,10.17-175.6-30.3c-21.5-19.04-40.44-44.28-54.15-69.51-17.48-32.19-24.5-67.89-21.97-104.44-8.43,25.89-6.15,54.09,1.37,79.96,15.64,53.78,48.55,103.91,98.05,131.76,1.65.93,3.32,1.83,5,2.71,26.86,14.02,57.02,21.46,87.33,21.46,104.03,0,188.67-84.64,188.67-188.67,0-69.24-39.33-134.27-100.44-166.74-28-14.88-58.21-21.44-88.2-20.72Z"/>
  </g>
</svg>